
<svg xmlns="http://www.w3.org/2000/svg" version="1.1" xmlns:xlink="http://www.w3.org/1999/xlink" preserveAspectRatio="none" x="0px" y="0px" width="50px" height="50px" viewBox="0 0 50 50">
<defs>
<image id="icon_sprite_png" x="0" y="0" width="400" height="150" xlink:href="./images/icon_sprite_png.png"/>

<g id="a_z_index_0_Layer0_0_FILL">
<path fill="#FFFFFF" stroke="none" d="
M 10.95 7.1
L 10.95 8.6 15.95 8.6 15.95 7.1 10.95 7.1
M 5.35 0
L 4.25 0 0 14.55 1.55 14.55 2.8 10.3 6.8 10.3 8.05 14.55 9.6 14.55 5.35 0
M 3.25 8.8
L 4.8 3.5 6.35 8.8 3.25 8.8
M 23.85 14.55
L 23.85 13.05 19.2 13.05 24.2 0 17.35 0 17.35 1.45 22.05 1.45 17.05 14.55 23.85 14.55 Z"/>

<path fill="#B3ACA5" stroke="none" d="
M 17.9 22.9
L 15.4 22.9 15.4 21.6 17.9 21.6 17.9 20.35 15.4 20.35 15.4 18.85 17.9 18.85 17.9 17.6 14.15 17.6 14.15 24.15 17.9 24.15 17.9 22.9
M 8.7 17.6
L 8.7 24.15 10.2 24.15
Q 11.3 24.15 12.05 23.4 12.85 22.6 12.85 21.5
L 12.85 20.15
Q 12.85 19.1 12.05 18.3 11.45 17.7 10.65 17.6 10.4 17.55 10.2 17.6
L 8.7 17.6
M 9.95 22.9
L 9.95 18.85 10.2 18.85
Q 10.8 18.85 11.15 19.2 11.55 19.6 11.6 20.15
L 11.6 21.5
Q 11.55 22.1 11.15 22.5 10.8 22.85 10.2 22.9
L 9.95 22.9
M 1.4 17.6
L 0.15 17.6 0.15 24.15 1.4 24.15 1.4 17.6
M 7.35 17.6
L 6.1 17.6 6.1 21.3 3.9 17.6 2.9 17.6 2.9 24.15 4.15 24.15 4.15 20.45 6.4 24.2 7.35 24.2 7.35 17.6
M 24 17.6
L 22.5 17.6 21.45 19.6 20.4 17.6 18.95 17.6 20.7 20.9 18.9 24.15 20.4 24.15 21.45 22.3 22.5 24.15 24 24.15 22.2 20.9 24 17.6 Z"/>
</g>
</defs>

<g transform="matrix( 1, 0, 0, 1, 0.5,-50.45) ">
<use xlink:href="#icon_sprite_png"/>
</g>

<g transform="matrix( 1, 0, 0, 1, 12.1,13.7) ">
<g transform="matrix( 1, 0, 0, 1, 0,0) ">
<use xlink:href="#a_z_index_0_Layer0_0_FILL"/>
</g>
</g>
</svg>
