
<svg xmlns="http://www.w3.org/2000/svg" version="1.1" xmlns:xlink="http://www.w3.org/1999/xlink" preserveAspectRatio="none" x="0px" y="0px" width="50px" height="50px" viewBox="0 0 50 50">
<defs>
<g id="Symbol_1_0_Layer0_0_FILL">
<path fill="#FFFFFF" stroke="none" d="
M 0 74.75
Q 2.85 74.75 4.95 71.95 7.1 69.2 7.1 65.5 7.1 61.75 4.95 59 2.85 56.25 0 56.25 -2.85 56.25 -5 59 -7.1 61.75 -7.1 65.45 -7.1 69.2 -5 71.95 -2.85 74.75 0 74.75
M 4.75 40.25
L 6.8 17.1
Q 7.1 13.95 7.1 10.85 7.1 5.6 5.75 2.8 4.4 0 0.35 0 -2.95 0 -5 2.2 -7.05 4.35 -7.05 8.25 -7.05 11.1 -6.6 17.7
L -5.1 40.15
Q -4.7 44.5 -3.7 46.65 -2.75 48.75 -0.2 48.75 2.3 48.75 3.35 46.55 4.45 44.35 4.75 40.25 Z"/>
</g>

<path id="Symbol_2_0_Layer0_0_1_STROKES" stroke="#B3ACA5" stroke-width="1.5" stroke-linejoin="round" stroke-linecap="round" fill="none" d="
M 1.7 20.05
L 21.4 20.05
Q 23.75 20.05 22.85 18.3
L 12.75 1.1
Q 12.1 0 11.5 0 10.95 0.1 10.35 1.1
L 0.25 18.3
Q -0.65 20.05 1.7 20.05 Z"/>
</defs>

<g transform="matrix( 1.04998779296875, 0, 0, 1.04998779296875, 12.9,15.1) ">
<g transform="matrix( 1, 0, 0, 1, 0,0) ">
<use xlink:href="#Symbol_2_0_Layer0_0_1_STROKES"/>
</g>
</g>

<g transform="matrix( 0.1903533935546875, 0, 0, 0.14593505859375, 25,22.25) ">
<g transform="matrix( 1, 0, 0, 1, 0,0) ">
<use xlink:href="#Symbol_1_0_Layer0_0_FILL"/>
</g>
</g>
</svg>
