
<svg xmlns="http://www.w3.org/2000/svg" version="1.1" xmlns:xlink="http://www.w3.org/1999/xlink" preserveAspectRatio="none" x="0px" y="0px" width="50px" height="50px" viewBox="0 0 50 50">
<defs>
<image id="icon_sprite_png" x="0" y="0" width="400" height="150" xlink:href="./images/icon_sprite_png.png"/>

<g id="calendar_0_Layer0_0_FILL">
<path fill="#FFFFFF" stroke="none" d="
M 18.6 13.9
L 16.55 13.9 14.55 16.2 15.6 17.05 17.25 15.2 17.25 22.25 18.6 22.25 18.6 13.9
M 7.25 13.95
L 7.25 15.3 10.8 15.3 8.9 17.25
Q 8.7 17.35 8.7 17.6 8.65 17.75 8.75 18 8.8 18.2 9.05 18.25 9.2 18.35 9.45 18.35 10.15 18.25 10.3 18.25 10.95 18.25 11.5 18.65
L 11.45 18.65
Q 11.9 19.1 11.95 19.6 11.95 20.15 11.5 20.55
L 11.45 20.55
Q 10.95 21 10.3 21 9.6369140625 21 9.15 20.6
L 9.1 20.55
Q 8.7921875 20.2765625 8.7 20
L 8.7 19.9 7.2 19.9 7.4 20.45
Q 7.65 21 8.2 21.55
L 8.2 21.6
Q 9.1 22.35 10.3 22.35 11.45 22.35 12.35 21.6
L 12.35 21.55
Q 13.3 20.8 13.3 19.6 13.35 18.55 12.4 17.65
L 12.35 17.65
Q 11.75 17.15 11 17
L 12.9 15.1
Q 13.1 14.9 13.1 14.6 13.1 14.35 12.9 14.15 12.7 13.95 12.4 13.95
L 7.25 13.95
M 26.5 7.3
Q 26.5 7.2 26.5 7.15
L 26.5 4.35
Q 26.5 2.8 24.95 2.8
L 21.55 2.8 21.55 4
Q 21.55 4.85 21 5.45 20.4 6 19.55 6 18.7 6 18.15 5.45 17.55 4.85 17.55 4
L 17.55 2.8 8.95 2.8 8.95 4
Q 8.95 4.85 8.4 5.45 7.8 6 6.95 6 6.1 6 5.55 5.45 4.95 4.85 4.95 4
L 4.95 2.8 1.55 2.8
Q 0 2.8 0 4.35
L 0 7.15
Q 0 7.2 0 7.3
L 26.5 7.3 Z"/>
</g>

<path id="calendar_0_Layer0_0_1_STROKES" stroke="#B3ACA5" stroke-width="1.5" stroke-linejoin="round" stroke-linecap="round" fill="none" d="
M 19.55 4
L 19.55 0
M 6.95 4
L 6.95 0"/>

<path id="calendar_0_Layer0_0_2_STROKES" stroke="#B3ACA5" stroke-width="1.25" stroke-linejoin="round" stroke-linecap="round" fill="none" d="
M 25.85 9.3
L 25.85 24.8
Q 25.85 26.4 24.45 26.4
L 2 26.4
Q 0.6 26.4 0.6 24.8
L 0.6 9.3"/>

<path id="calendar_0_Layer0_0_3_STROKES" stroke="#B3ACA5" stroke-width="1.25" stroke-linejoin="round" stroke-linecap="square" fill="none" d="
M 0.6 9.3
L 25.85 9.3"/>
</defs>

<g transform="matrix( 1, 0, 0, 1, 0.5,-50.45) ">
<use xlink:href="#icon_sprite_png"/>
</g>

<g transform="matrix( 1, 0, 0, 1, 11.75,11.8) ">
<g transform="matrix( 1, 0, 0, 1, 0,0) ">
<use xlink:href="#calendar_0_Layer0_0_FILL"/>

<use xlink:href="#calendar_0_Layer0_0_1_STROKES"/>

<use xlink:href="#calendar_0_Layer0_0_2_STROKES"/>

<use xlink:href="#calendar_0_Layer0_0_3_STROKES"/>
</g>
</g>
</svg>
