
<svg xmlns="http://www.w3.org/2000/svg" version="1.1" xmlns:xlink="http://www.w3.org/1999/xlink" preserveAspectRatio="none" x="0px" y="0px" width="50px" height="50px" viewBox="0 0 50 50">
<defs>
<image id="icon_sprite_png" x="0" y="0" width="400" height="150" xlink:href="./images/icon_sprite_png.png"/>

<image id="map3_png" x="0" y="0" width="50" height="50" xlink:href="./images/map3_png.png"/>

<g id="Layer0_0_FILL">
<path fill="#B3ACA5" stroke="none" d="
M 33.95 25.75
Q 33.5 25.75 33.15 26.05 32.85 26.4 32.85 26.85 32.85 27.3 33.15 27.6 33.5 27.95 33.95 27.95 34.4 27.95 34.7 27.6 35.05 27.3 35.05 26.85 35.05 26.4 34.7 26.05 34.4 25.75 33.95 25.75
M 16 29.6
Q 16.35 29.3 16.35 28.85 16.35 28.4 16 28.05 15.7 27.75 15.25 27.75 14.8 27.75 14.45 28.05 14.15 28.4 14.15 28.85 14.15 29.3 14.45 29.6 14.8 29.95 15.25 29.95 15.7 29.95 16 29.6
M 23.5 28.95
Q 23.2 28.65 22.75 28.65 22.3 28.65 21.95 28.95 21.65 29.3 21.65 29.75 21.65 30.2 21.95 30.5 22.3 30.85 22.75 30.85 23.2 30.85 23.5 30.5 23.85 30.2 23.85 29.75 23.85 29.3 23.5 28.95
M 17.85 30.05
Q 17.55 30.4 17.55 30.85 17.55 31.3 17.85 31.6 18.2 31.95 18.65 31.95 19.1 31.95 19.4 31.6 19.75 31.3 19.75 30.85 19.75 30.4 19.4 30.05 19.1 29.75 18.65 29.75 18.2 29.75 17.85 30.05
M 27.6 26.95
Q 27.3 26.65 26.85 26.65 26.4 26.65 26.05 26.95 25.75 27.3 25.75 27.75 25.75 28.2 26.05 28.5 26.4 28.85 26.85 28.85 27.3 28.85 27.6 28.5 27.95 28.2 27.95 27.75 27.95 27.3 27.6 26.95 Z"/>
</g>

<g id="marker_0_Layer0_0_FILL">
<path fill="#FFFFFF" stroke="none" d="
M 9.8 4.9
Q 8 3.2 5.6 3.2 3.2 3.2 1.4 4.9 -0.3 6.65 -0.3 9.05 -0.3 10.95 0.6 12.65 3.1 17.3 4.65 22.7
L 4.7 22.7
Q 4.75 22.95 4.95 23.15 5.25 23.45 5.65 23.45 6.05 23.45 6.35 23.15 6.55 22.95 6.65 22.7
L 6.7 22.7
Q 8.1 17.3 10.6 12.65 11.5 10.95 11.5 9.05 11.5 6.65 9.8 4.9
M 5.55 6.15
L 5.65 6.15
Q 6.85 6.15 7.7 7 8.55 7.85 8.55 9.05 8.55 10.25 7.7 11.1 6.85 12 5.65 12
L 5.55 12
Q 4.35 12 3.5 11.1 2.65 10.25 2.65 9.05 2.65 7.85 3.5 7 4.35 6.15 5.55 6.15 Z"/>
</g>

<path id="Layer0_0_1_STROKES" stroke="#B3ACA5" stroke-width="1.5" stroke-linejoin="round" stroke-linecap="square" fill="none" d="
M 14.65 18.35
L 10.5 36.2 20 39.2 30.65 33.75 39.8 37.95 36 19.7 30.25 17.6 21.75 20.5 14.65 18.35 Z"/>
</defs>

<g transform="matrix( 1, 0, 0, 1, 0.5,-50.45) ">
<use xlink:href="#icon_sprite_png"/>
</g>

<g transform="matrix( 1, 0, 0, 1, -2,4) ">
<use xlink:href="#map3_png"/>
</g>

<g transform="matrix( 1, 0, 0, 1, 0,0) ">
<use xlink:href="#Layer0_0_FILL"/>

<use xlink:href="#Layer0_0_1_STROKES"/>
</g>

<g transform="matrix( 0.899993896484375, 0, 0, 0.899993896484375, 25.35,5.15) ">
<g transform="matrix( 1, 0, 0, 1, 0,0) ">
<use xlink:href="#marker_0_Layer0_0_FILL"/>
</g>
</g>
</svg>
