
<svg xmlns="http://www.w3.org/2000/svg" version="1.1" xmlns:xlink="http://www.w3.org/1999/xlink" preserveAspectRatio="none" x="0px" y="0px" width="50px" height="50px" viewBox="0 0 50 50">
<defs>
<g id="Layer1_0_FILL">
<path fill="#B3ACA5" stroke="none" d="
M 19.25 25.95
L 19.2 25.9
Q 18.4 26.4 17.65 27.05 14.6 29.85 14.6 33.7 14.6 35.4 15.2 36.85
L 35.05 36.85
Q 35.6 35.4 35.6 33.7 35.6 29.85 32.5 27.05 31.7 26.35 30.85 25.85 30.75 25.9 30.7 25.95 28.35 28.1 25 28.1 21.65 28.1 19.25 25.95 Z"/>
</g>

<path id="Layer0_0_1_STROKES" stroke="#FFFFFF" stroke-width="1.5" stroke-linejoin="round" stroke-linecap="round" fill="none" d="
M 30.35 19.4
Q 30.35 21.6 28.75 23.15 27.2 24.7 25 24.7 22.75 24.7 21.2 23.15 19.65 21.6 19.65 19.4 19.65 17.15 21.2 15.55 22.75 14 25 14 27.2 14 28.75 15.55 30.35 17.15 30.35 19.4 Z"/>
</defs>

<g transform="matrix( 1, 0, 0, 1, 0,0) ">
<use xlink:href="#Layer1_0_FILL"/>
</g>

<g transform="matrix( 1, 0, 0, 1, 0,0) ">
<use xlink:href="#Layer0_0_1_STROKES"/>
</g>
</svg>
