
<svg xmlns="http://www.w3.org/2000/svg" version="1.1" xmlns:xlink="http://www.w3.org/1999/xlink" preserveAspectRatio="none" x="0px" y="0px" width="50px" height="50px" viewBox="0 0 50 50">
<defs>
<g id="Layer0_0_FILL">
<path fill="#A291B1" stroke="none" d="
M 25.25 11.45
Q 24.65 11.4 24.2 11.55 22.6 12 21 12.45 19.5 13.05 18.45 14.15 17.85 15.35 17.9 17.2 17.9 18.4 17.7 19.3 17.15 20.7 17.85 22.05 19.1 24.35 19.95 27.2 20.4 28.65 19.55 29.6 18.95 30.1 18.45 30.7 17.9 31.25 17.3 31.6 14.85 32.9 12.05 33.95 12.8 35 13.9 36.1 15.35 37.55 17 38.55 20.55 40.7 25 40.7 29.45 40.7 33 38.55 34.65 37.55 36.1 36.1 37.35 34.8 38.3 33.35 38.1 33.3 37.9 33.3 33.6 32.6 30.8 30.35 30.75 30.3 30.7 30.3 29.25 29.9 29.25 28.3 29.75 26.45 30.65 24.9 31.25 23.6 31.8 22.35 31.95 21.9 31.9 21.3 31.9 21.15 31.9 21.1 31.9 20.2 31.9 19.25 31.95 18.2 31.9 17.45 31.55 15.05 30.3 13.6 28.55 11.7 25.25 11.45 Z"/>

<path fill="#FFFFFF" stroke="none" d="
M 24.2 11.55
Q 24.65 11.4 25.25 11.45 28.55 11.7 30.3 13.6 31.55 15.05 31.9 17.45 31.95 18.2 31.9 19.25 31.9 20.2 31.9 21.1 31.9 21.15 31.9 21.3 31.95 21.9 31.8 22.35 31.25 23.6 30.65 24.9 29.75 26.45 29.25 28.3 29.25 29.9 30.7 30.3 30.75 30.3 30.8 30.35 33.6 32.6 37.9 33.3 38.1 33.3 38.3 33.35 40.7 29.7 40.7 25 40.7 18.5 36.1 13.9 31.5 9.3 25 9.3 18.5 9.3 13.9 13.9 9.3 18.5 9.3 25 9.3 30 12.05 33.95 14.85 32.9 17.3 31.6 17.9 31.25 18.45 30.7 18.95 30.1 19.55 29.6 20.4 28.65 19.95 27.2 19.1 24.35 17.85 22.05 17.15 20.7 17.7 19.3 17.9 18.4 17.9 17.2 17.85 15.35 18.45 14.15 19.5 13.05 21 12.45 22.6 12 24.2 11.55 Z"/>
</g>
</defs>

<g transform="matrix( 1, 0, 0, 1, 0,0) ">
<use xlink:href="#Layer0_0_FILL"/>
</g>
</svg>
