
<svg xmlns="http://www.w3.org/2000/svg" version="1.1" xmlns:xlink="http://www.w3.org/1999/xlink" preserveAspectRatio="none" x="0px" y="0px" width="250px" height="1000px" viewBox="0 0 250 1000">
<defs>
<linearGradient id="Gradient_1" gradientUnits="userSpaceOnUse" x1="124.6" y1="9.999999999999943" x2="124.6" y2="986.8" spreadMethod="pad">
<stop  offset="68.23529411764706%" stop-color="#373533"/>

<stop  offset="100%" stop-color="#373533" stop-opacity="0.00784313725490196"/>
</linearGradient>

<g id="Symbol_2_0_Layer0_0_FILL">
<path fill="url(#Gradient_1)" stroke="none" d="
M 0.05 29.9
L 0.05 191.65 59 208.85 58.85 294.1 26 301.55 25.85 391.8 58.8 401.45 59.6 745.8 59.7 745.8 59.8 996.75 102.1 996.75 102.2 413.3 128.5 420.45 152.65 414.95 152.65 996.75 198.1 996.75 198.1 406.25 233.3 396.8 233.35 308.15 197.55 298.05 197.5 212.65 249.05 201.25 249.05 33.7 128.5 0 0.05 29.9
M 128.5 228.35
L 152.65 223.1 152.7 285.35 128.6 278.65 102.05 284.35 101.85 220.7 128.5 228.35 Z"/>
</g>

<g id="Symbol_1_0_Layer0_0_FILL">
<path fill="#4A4844" stroke="none" d="
M 45.15 96.6
L 40.35 96.6 40.35 114.25 45.15 114.25 45.15 96.6
M 68.8 75.15
L 77.8 81.65 80.6 77.75 71.6 71.3 68.8 75.15
M 58.85 88.35
L 54.9 91.05 61.75 101.15 65.7 98.45 58.85 88.35
M 30.45 94.1
L 26.35 91.6 18.8 103.8 22.85 106.35 30.45 94.1
M 15.2 78.75
L 5.85 85.15 8.55 89.1 17.9 82.7 15.2 78.75
M 12.95 63.75
L 12.95 58.95 0 58.95 0 63.75 12.95 63.75
M 29.3 26.45
L 22.75 29.45 34.9 55.75 29.75 54.7 28.8 59.4 37.35 61.15 40.75 68.55 47.3 65.5 46.1 62.9 77.75 69.4 78.7 64.7 43.6 57.5 29.3 26.45
M 6.45 34.25
L 4.6 38.7 15.75 43.35 17.6 38.95 6.45 34.25
M 28.55 22.45
L 23.15 11.85 18.85 14.05 24.25 24.65 28.55 22.45
M 66.85 33.2
L 69.8 37 79.55 29.35 76.6 25.6 66.85 33.2
M 46.35 19
L 46.35 0 39.15 0 39.15 19 46.35 19
M 65.75 10.85
L 61.6 8.5 55.4 19.35 59.55 21.7 65.75 10.85
M 154.7 96.3
L 150.65 93.75 144.9 102.75 148.95 105.35 154.7 96.3
M 135 85.75
L 138.75 88.75 145.95 79.75 142.2 76.75 135 85.75
M 140.05 61.15
L 140.05 56.35 126.45 56.35 126.45 61.15 140.05 61.15
M 87.45 55.9
L 87.45 51.1 72.4 51.1 72.4 55.9 87.45 55.9
M 135.1 34.1
L 140.5 41.75 144.4 38.95 139 31.3 135.1 34.1
M 151.45 17.5
L 147 19.2 150.2 27.8 154.7 26.1 151.45 17.5
M 175.45 99.45
L 181.2 109.55 185.35 107.15 179.6 97.05 175.45 99.45
M 189.15 84.25
L 185.4 87.25 192.6 96.25 196.35 93.25 189.15 84.25
M 167.95 98.75
L 163.15 98.75 163.15 122.55 167.95 122.55 167.95 98.75
M 167.5 73
L 167 70.95 195 83.9 197 79.55 165.5 64.95 156.35 27.95 149.35 29.7 157.15 61.1 153.85 59.55 151.85 63.9 158.65 67.05 160.55 74.7 167.5 73
M 191.2 64.2
L 191.2 69 203.15 69 203.15 64.2 191.2 64.2
M 175.6 30.15
L 179.4 33.1 185.15 25.65 181.35 22.7 175.6 30.15
M 169.15 26.6
L 169.15 5.05 161.95 5.05 161.95 26.6 169.15 26.6
M 196.05 43.45
L 192.95 39.8 185.75 45.9 188.85 49.55 196.05 43.45 Z"/>
</g>
</defs>

<g transform="matrix( 1, 0, 0, 1, 0.45,1.2) ">
<g transform="matrix( 1, 0, 0, 1, 0,0) ">
<use xlink:href="#Symbol_2_0_Layer0_0_FILL"/>
</g>
</g>

<g transform="matrix( 1, 0, 0, 1, 23.25,42.65) ">
<g transform="matrix( 1, 0, 0, 1, 0,0) ">
<use xlink:href="#Symbol_1_0_Layer0_0_FILL"/>
</g>
</g>
</svg>
