
<svg xmlns="http://www.w3.org/2000/svg" version="1.1" xmlns:xlink="http://www.w3.org/1999/xlink" preserveAspectRatio="none" x="0px" y="0px" width="1812px" height="320px" viewBox="0 0 1812 320">
<defs>
<filter id="Filter_1" x="-39.48178804917164%" y="-64.75189209131875%" width="178.96357609834328%" height="229.5037841826375%" color-interpolation-filters="sRGB">
<feGaussianBlur in="SourceGraphic" stdDeviation="8,8" result="result1"/>

<feColorMatrix in="result1" type="matrix" values="1 0 0 0 0 0 1 0 0 0 0 0 1 0 0 0 0 0 0.21 0" result="result2"/>
</filter>

<filter id="Filter_2" x="-20%" y="-20%" width="140%" height="140%" color-interpolation-filters="sRGB">
<feFlood flood-color="#FFFFFF" flood-opacity="0.13725490196078433" in="SourceGraphic" result="result1"/>

<feGaussianBlur in="SourceGraphic" stdDeviation="5.333333333333333,5.333333333333333" result="result2"/>

<feComposite in2="result2" in="result1" operator="in" result="result3"/>

<feComposite in2="result3" in="SourceGraphic" operator="over" result="result4"/>
</filter>

<g id="sunglow_0_Layer0_0_FILL">
<path fill="#FFFFFF" stroke="none" d="
M 81.5 49
Q 115.25 49 139.1 41.8 163 34.65 163 24.5 163 14.35 139.1 7.15 115.25 0 81.5 0 47.75 0 23.85 7.15 0 14.35 0 24.5 0 34.65 23.85 41.8 47.75 49 81.5 49 Z"/>
</g>

<g id="Symbol_1_0_Layer0_0_FILL">
<path fill="#42403D" stroke="none" d="
M 1812.3 35
L 1811.4 34.6
Q 1808.85 33.5 1807.2 33
L 1799.7 33 1799.7 33.2
Q 1790.75 33.7 1786.55 35.2 1779.95 37.5 1779.9 37.5 1778.25 37.85 1774.8 39.55 1771.1 41.35 1770.2 42.5 1769.55 43.4 1765.8 44.8 1761.95 46.3 1760.65 47.5 1759.75 48.4 1757.7 51.05
L 1757.05 52
Q 1756.4 52.15 1755.45 52.7 1754.55 53.25 1753.55 53.5 1750.8 54.1 1748.45 54.95
L 1736.45 55
Q 1733.95 57.05 1726.4 58.1 1715.9 59.6 1713.95 60 1712.15 60.45 1709.7 63.05 1707.45 65.85 1706.4 66.75 1704.05 69 1698.55 74.2 1694 78.3 1688.95 79.95
L 1686.65 79.95
Q 1683.6 79.85 1679.9 79.45 1675.15 79 1674.8 79 1671.8 78.95 1671.3 79 1670.25 79.5 1667.95 80.2
L 1659.7 80.25
Q 1652.2 82.3 1646.55 84.35 1636.55 87.95 1635.05 90.7
L 1631.15 91.45
Q 1628.35 91.45 1626.4 88.95 1624.3 86.25 1618.55 85.5 1615.3 85.2 1602.3 81.75 1598.9 80.85 1599.05 78.45 1599.25 75.7 1597.15 74.7 1595.75 74 1595.55 72.6 1595.15 71.15 1594.2 70.75 1587.75 68.35 1587.05 67.25 1585.1 64.5 1583.9 63.5 1580.95 61 1576.2 60.25
L 1562.45 57.85
Q 1551.85 56.4 1550.7 56.25 1548.95 55.85 1547.95 54.75
L 1530.9 48.7
Q 1528.45 47.65 1523.65 45.85
L 1514.2 43 1507.2 43
Q 1505.65 43.7 1504.95 43.75
L 1496.45 43.75 1495.95 43.95 1485.95 44
Q 1476.4 44.45 1473.2 45
L 1466.95 45
Q 1461.5 45.4 1461.15 45.5
L 1447.9 45.45
Q 1442.9 45.15 1441.45 45.7 1434.45 42.3 1432.2 41.75
L 1424.4 41.7
Q 1418.1 39.4 1405.55 33 1394.35 27.15 1388.7 25.15 1384.8 23.85 1382.8 20.5 1382.3 19.45 1379.4 18.05 1376.35 16.85 1375.95 16.5 1369.3 11.75 1365.45 12.25
L 1362.65 14.45
Q 1360.8 16 1358.2 16.5 1356.9 16.8 1353.7 18.25 1350.35 19.85 1349.95 19.9 1349.85 20 1343.9 21.5 1340.25 22.4 1339.65 23.5 1337.9 26.6 1331.2 28.75
L 1322.45 31.65
Q 1321.55 32.3 1317.15 36.6 1314.4 39.4 1308.9 40.35
L 1303.7 40.3
Q 1298.25 40.45 1295.7 41.45 1293.4 42.25 1291.7 43.35
L 1287.65 45.6
Q 1286.3 46.4 1285.8 46.95 1284.7 47.4 1283.65 48 1279.45 50.45 1278.2 51.75
L 1273.2 57.7
Q 1270.65 59.95 1266.15 59.95
L 1244.9 59.7
Q 1243.25 59.5 1238.4 58.5 1234.75 57.6 1232.2 57.25
L 1206.95 57.25
Q 1200.4 58.5 1196.95 58.95
L 1189.95 59
Q 1184 60.2 1178.4 64.7 1172.85 69.4 1167.2 70.7
L 1158.2 70.75
Q 1157.85 70.95 1155.4 71
L 1152.45 71.2
Q 1148.7 71.2 1145.15 70.6 1142.45 70.1 1141.45 69.75
L 1134.7 69.75
Q 1132 70 1128.8 72.6 1125.65 75.2 1122.55 75.2
L 1111.2 75.2
Q 1109.8 75.25 1108.9 75.5
L 1107.45 75 1100.4 74.95
Q 1095.4 74.5 1093.65 72.95 1091.95 71.4 1087.7 71 1082.55 70.65 1080.65 69.1 1078.3 67.2 1075.2 66.25
L 1065.7 66.25 1065.2 66.45 1058.95 66.5 1054.95 67.45 1038.9 67.45
Q 1037.8 66.05 1033.9 64.7 1029.75 63.25 1028.95 62.7 1027.05 61.2 1025.9 59.85
L 1023.4 56.85
Q 1021.95 55.3 1013.2 52 1008.45 50.3 1001.7 46.75 997.85 44.65 992.9 41.2 992.05 40.55 987.65 39 983.1 37.35 981.45 36.5 980.4 36.15 972.15 30.65 968.45 28.2 966.95 28.05 966.2 27.15 965.65 26.15 965.25 25.45 961.95 24.15
L 954.15 21.4
Q 951.3 20.5 949.05 18.4 946.8 16.25 944.15 16
L 943.55 16
Q 942.7 16 941.2 16.4 937.65 17.35 931.45 20.5 922.85 25.4 921.2 25.9
L 911.9 25.9
Q 906.65 25.45 904.15 23.25 901.1 20.75 897.7 19.75 890.35 17.95 884.45 16.4 880.65 15.3 878.45 13.4 877.9 12.85 874.3 10.65 871.15 8.55 869.2 6.5 868.15 5.4 863.8 3.05 859.6 0.85 857.2 0
L 852.2 0
Q 851.4 0.4 849.75 1.5 848.1 2.7 846.5 2.7 846.05 2.7 845.45 2.35 844.85 2 843.95 2 842.5 2 841.45 3.2 841 3.75 840.9 4.2 837.65 2.5 835.2 2.5
L 824.45 2.5 824.45 2.7
Q 817.4 3.9 814.55 6.75 811.45 9.85 808.95 10.5 805.45 11.5 803.05 12.6 800.35 13.85 799.9 14 793.15 16.5 791.4 17.75 788.3 19.95 774.7 26.5 765.65 30.8 763.65 32.35
L 760.15 32.95
Q 755.25 33.75 753.4 34.2
L 751.2 33
Q 749.85 32.45 743.3 31.5 736.05 30.35 734.95 29.9
L 728.95 28.9
Q 723.95 28.1 722.15 26.65 720.35 25.4 718.25 24.65
L 714.2 23.4
Q 707.75 20.45 706.25 19.9 703 18.5 695.15 17.15 693 16.85 690.5 15.15 688 13.45 686.2 13.25 682.9 12.9 680.5 12.2 678.05 11.5 674.2 11 673.95 10.8 670.25 10.5 666.7 10.25 666.7 10.4 657.75 11.1 655.05 13.5 653.05 15.55 649.05 17.25 647.1 18.15 640.45 18.75 633 19.4 631.2 19.75 630.8 19.9 629.9 20.65 629.15 21.4 628.65 21.65 628 21.85 625.15 22.15 622.45 22.35 620.45 23 618.25 23.8 616.65 26 614.55 29.05 613.2 30.15
L 608.4 34.1
Q 605.25 36.8 604.3 38 603.65 38.95 600.65 39.85 597.8 40.7 597.2 41.5 595.4 44.6 594.7 45.5 593.75 46.95 590.2 49.45 589.25 50.1 587.9 51.6 587.1 52.65 586.2 53.2 583.6 54.65 581.25 57 579.1 59.7 577.8 60.85 577.4 61.4 573.65 61.85 570.6 62.3 569.95 64.25 569.9 64.65 569.4 65.2 568.7 64.85 566.8 66.2 562.6 69.4 562.2 69.5 558.85 70.25 557.25 71.95 556 73.9 554.95 74.95 554.25 75.6 552.8 77.75
L 550.9 80.75
Q 549.15 83.15 544.8 84.35 540.4 85.45 533.15 85.45 530.25 85.45 526.95 84.35
L 523.45 82.75 513.15 82.7
Q 511 81.95 506.95 81.95 502.7 81.9 498.95 80.75
L 492.45 80.75
Q 488.35 81.35 480.45 81.95
L 480.3 82 469.7 78
Q 467.5 77.3 462.3 76.45 456.15 75.35 449.7 74.85 441.35 74.35 438.7 72.85 437.15 71.25 435.05 70.5 432.6 69.75 429.9 68.2
L 425.95 65.75 418.7 65.75
Q 415.8 66.7 414.95 66.7 413.15 66.5 410.85 66.5 405.05 66.5 400.4 64.85
L 385.7 58.2
Q 379.15 55.05 376 53.25 372.3 51.1 369.45 48.5 357.7 47.3 352.8 46.3
L 346.2 44.5
Q 339.45 42.8 338.7 42.7 336.4 42.45 326.45 41 325.35 40.85 318.2 38.5 311.1 36.05 309.7 35.75 298.5 35.95 290.05 34.5 287.75 34.1 287.2 34.25 286.6 34.35 285.95 35.6 284.8 37.95 278.4 41.95 271.2 46.35 269.6 47.75 268.4 49.6 267.4 50.7 265.65 52.85 262.45 53.75
L 255.5 56.1
Q 251.25 57.6 247.45 58.45
L 233.3 58.5
Q 232.95 58.25 232.3 58.25 230.25 58.25 225.35 59.75 219.95 61.25 216.7 63.35 214.65 64.8 208.15 66.25 201.95 67.75 200.7 68.95 200.4 69.2 199.2 70.7 198.5 71.8 197.6 72.1 196.45 72.75 193.15 73.95 191.45 74.5 190.7 75.1 189.9 76 188.85 78.95 188.3 80.55 184.45 81.2
L 171.6 81.2
Q 166.1 79.8 162.85 77.45 160.95 75.95 158.65 72.85 156.35 69.8 154.3 68.35 150.9 65.9 145.2 64.5 142.25 63.85 140.2 60.75 138.05 57.2 134.7 55.5 129.65 52.95 126.5 51.7 122.1 50 115.7 48.25
L 115.6 48.1 115.6 48
Q 115.6 45.1 109.85 41.6
L 99.45 35.25
Q 90.95 34.5 88.65 33.35 86.4 32.3 74.2 31.25
L 67.85 31.15
Q 55.5 27.35 50.95 24.75
L 39.2 24.75
Q 35.9 25.85 33.85 26.3
L 25.45 28.4 19.2 28.5
Q 15.15 30.4 12.55 31.5 7.4 33.8 4.95 34.7
L 0 34.75 0 222.1 1812.3 222.1 1812.3 35 Z"/>
</g>

<g id="peter_0_Layer0_0_FILL">
<path fill="#413F3C" stroke="none" d="
M 2.75 1.2
L 2.65 1 2.45 0.95 2.25 0.8 2.25 0.7 2.35 0.55 2.35 0.45 2.3 0.2 2.15 0.05
Q 2.1 0 1.95 0.05
L 1.85 0.1 1.7 0.5 1.75 0.55 1.8 0.65 1.85 0.9 1.8 0.9 1.45 1.1
Q 1.3 1.2 1.3 1.35
L 1.2 1.7 1.2 1.8 1 2.15 0.9 2.6 0.75 2.75 0.55 2.85 0.5 2.9
Q 0.6 3 0.4 3
L 0.15 4.5 0.1 4.5 0 4.6 0.15 4.8 0.4 4.8
Q 0.3 4.55 0.4 4.35
L 0.55 4.05
Q 0.7 3.6 0.7 3.55
L 0.9 3.7 1 3.75
Q 1.1 3.8 1.2 3.7 1.25 3.55 1.5 3.45 1.4 3.7 1.5 3.85 1.5 3.95 1.6 4 1.65 4.1 1.95 4.1
L 2 4.25 1.95 4.9 2.05 5 2 5.35 2.15 5.45
Q 2 5.5 2 5.7
L 1.85 5.7 1.7 5.8 2.4 5.8
Q 2.25 5.4 2.3 5.05 2.4 4.8 2.4 4.45 2.3 3.85 2.45 3.4
L 2.45 3.25 2.6 2.65 2.7 2.45 2.8 1.85 2.85 1.85 3 1.75 2.9 1.55 2.85 1.5 2.85 1.45 2.8 1.35 2.75 1.2
M 1.35 1.95
L 1.4 1.9
Q 1.5 1.9 1.45 2.1
L 1.4 2.4 1.35 2.45 1.15 2.45 1.35 1.95 Z"/>
</g>

<g id="towers_0_Layer0_0_FILL">
<path fill="#413F3C" stroke="none" d="
M 0.7 3.5
L 0.3 3.5 0 11.8 1 11.8 0.7 3.5
M 1.75 2
L 1.3 2 1.05 10.3 2.05 10.3 1.75 2
M 2.95 0
L 2.55 0 2.2 10.3 3.3 10.3 2.95 0 Z"/>
</g>
</defs>

<g filter="url(#Filter_1)" transform="matrix( 1, 0, 0, 1, 0,0) ">
<g transform="matrix( 0.55828857421875, 0, 0, 1, 707.9,115.05) ">
<g transform="matrix( 1, 0, 0, 1, 0,0) ">
<use xlink:href="#sunglow_0_Layer0_0_FILL"/>
</g>
</g>
</g>

<g filter="url(#Filter_2)" transform="matrix( 1, 0, 0, 1, 0,0) ">
<g transform="matrix( 1, 0, 0, 1, -0.15,101) ">
<g transform="matrix( 1, 0, 0, 1, 0,0) ">
<use xlink:href="#Symbol_1_0_Layer0_0_FILL"/>
</g>
</g>
</g>

<g transform="matrix( 1, 0, 0, 1, 954.05,118.05) ">
<g transform="matrix( 1, 0, 0, 1, 0,0) ">
<use xlink:href="#peter_0_Layer0_0_FILL"/>
</g>
</g>

<g transform="matrix( 1, 0, 0, 1, 851.95,91.45) ">
<g transform="matrix( 1, 0, 0, 1, 0,0) ">
<use xlink:href="#towers_0_Layer0_0_FILL"/>
</g>
</g>
</svg>
